<?xml version="1.0" encoding="UTF-8" standalone="no"?>
<svg width="180px" height="57px" viewBox="0 0 180 57" version="1.1" xmlns="http://www.w3.org/2000/svg" xmlns:xlink="http://www.w3.org/1999/xlink">
    <!-- Generator: Sketch 3.6 (26304) - http://www.bohemiancoding.com/sketch -->
    <title>Artboard 3 Copy</title>
    <desc>Created with Sketch.</desc>
    <defs></defs>
    <g id="Page-1" stroke="none" stroke-width="1" fill="none" fill-rule="evenodd">
        <g id="Artboard-3-Copy" fill="#FFFFFF">
            <path d="M66.3408485,26.5210909 C66.3408485,27.4192772 66.1612139,28.2076734 65.8019394,28.886303 C65.4426649,29.5649327 64.9486698,30.1337755 64.3199394,30.5928485 C63.691209,31.0519215 62.962691,31.4012109 62.1343636,31.6407273 C61.3060363,31.8802436 60.422833,32 59.4847273,32 L49.2155152,32 L49.2155152,10.7430303 L60.5924848,10.7430303 C61.3309936,10.7430303 61.9996334,10.9027055 62.5984242,11.2220606 C63.1972151,11.5414157 63.7061797,11.9555732 64.1253333,12.4645455 C64.5444869,12.9735177 64.8688271,13.5523402 65.0983636,14.2010303 C65.3279001,14.8497204 65.4426667,15.5033906 65.4426667,16.1620606 C65.4426667,17.1999648 65.1831945,18.1729854 64.6642424,19.0811515 C64.1452903,19.9893177 63.3868333,20.6629473 62.3888485,21.1020606 C63.6063899,21.4613351 64.5694308,22.1050257 65.278,23.0331515 C65.9865692,23.9612774 66.3408485,25.1239122 66.3408485,26.5210909 L66.3408485,26.5210909 Z M62.1792727,25.7426667 C62.1792727,25.3634324 62.1144047,24.9991735 61.9846667,24.6498788 C61.8549286,24.3005841 61.6802839,23.9962033 61.4607273,23.7367273 C61.2411706,23.4772512 60.9816985,23.2726674 60.682303,23.1229697 C60.3829076,22.973272 60.0535776,22.8984242 59.694303,22.8984242 L53.3471515,22.8984242 L53.3471515,28.4970909 L59.4847273,28.4970909 C59.8639615,28.4970909 60.2182408,28.427233 60.5475758,28.2875152 C60.8769107,28.1477973 61.1613321,27.9531932 61.4008485,27.703697 C61.6403648,27.4542008 61.8299791,27.1597997 61.969697,26.8204848 C62.1094148,26.48117 62.1792727,26.1219009 62.1792727,25.7426667 L62.1792727,25.7426667 Z M53.3471515,14.2758788 L53.3471515,19.6350303 L58.856,19.6350303 C59.5545894,19.6350303 60.1483814,19.3955175 60.6373939,18.9164848 C61.1264065,18.4374522 61.3709091,17.7787921 61.3709091,16.9404848 C61.3709091,16.1221373 61.1463659,15.4734569 60.6972727,14.9944242 C60.2481796,14.5153915 59.6943063,14.2758788 59.0356364,14.2758788 L53.3471515,14.2758788 Z M71.7264242,32.2993939 C70.9679558,32.2993939 70.2593972,32.1746477 69.6007273,31.9251515 C68.9420573,31.6756553 68.3732145,31.3263659 67.8941818,30.8772727 C67.4151491,30.4281796 67.0409104,29.9042454 66.7714545,29.3054545 C66.5019986,28.7066637 66.3672727,28.0480036 66.3672727,27.3294545 C66.3672727,26.5909458 66.5319377,25.9073365 66.8612727,25.2786061 C67.1906077,24.6498756 67.6496738,24.1159618 68.2384848,23.6768485 C68.8272959,23.2377352 69.5308646,22.8934356 70.3492121,22.6439394 C71.1675596,22.3944432 72.0657325,22.269697 73.0437576,22.269697 C73.7423469,22.269697 74.4259562,22.3295752 75.0946061,22.4493333 C75.7632559,22.5690915 76.3570479,22.7387464 76.876,22.958303 L76.876,22.0601212 C76.876,21.022217 76.5815989,20.2238412 75.9927879,19.6649697 C75.4039768,19.1060982 74.5307533,18.8266667 73.3730909,18.8266667 C72.5347837,18.8266667 71.7164484,18.9763621 70.9180606,19.2757576 C70.1196728,19.575153 69.3013375,20.0142597 68.4630303,20.5930909 L67.2355151,18.0482424 C69.2514444,16.7109428 71.4270186,16.042303 73.762303,16.042303 C76.0177486,16.042303 77.7691857,16.5961763 79.0166667,17.7039394 C80.2641476,18.8117025 80.8878788,20.4134441 80.8878788,22.5092121 L80.8878788,27.3893333 C80.8878788,27.8084869 80.9627265,28.1078779 81.1124242,28.2875152 C81.262122,28.4671524 81.5066246,28.5669494 81.8459394,28.5869091 L81.8459394,32 C81.1673097,32.1397179 80.5785075,32.2095758 80.0795151,32.2095758 C79.3210467,32.2095758 78.7372344,32.0399209 78.3280606,31.7006061 C77.9188868,31.3612912 77.6644045,30.9122048 77.5646061,30.3533333 L77.4747879,29.4850909 C76.7761985,30.4032369 75.9279242,31.1018158 74.9299394,31.5808485 C73.9319546,32.0598812 72.8641269,32.2993939 71.7264242,32.2993939 L71.7264242,32.2993939 Z M72.8641212,29.3653333 C73.5427509,29.3653333 74.1864414,29.245577 74.7952121,29.0060606 C75.4039828,28.7665443 75.8780185,28.4471939 76.2173333,28.048 C76.6564466,27.7086852 76.876,27.3294566 76.876,26.910303 L76.876,25.1139394 C76.3969673,24.9343021 75.878023,24.7895965 75.3191515,24.6798182 C74.76028,24.5700399 74.2213763,24.5151515 73.7024242,24.5151515 C72.6645201,24.5151515 71.8162457,24.7496744 71.1575757,25.2187273 C70.4989058,25.6877801 70.1695757,26.2815722 70.1695757,27.0001212 C70.1695757,27.6787509 70.4290479,28.2426038 70.948,28.691697 C71.4669521,29.1407901 72.1056528,29.3653333 72.8641212,29.3653333 L72.8641212,29.3653333 Z M90.1655757,32.2993939 C88.9081149,32.2993939 87.7704293,32.0848304 86.7524848,31.655697 C85.7345403,31.2265635 84.8663066,30.6427512 84.1477576,29.9042424 C83.4292085,29.1657337 82.8753353,28.3074796 82.4861212,27.3294545 C82.0969071,26.3514295 81.902303,25.3235205 81.902303,24.245697 C81.902303,23.127954 82.0919173,22.0750958 82.4711515,21.0870909 C82.8503857,20.099086 83.3992691,19.2308522 84.1178182,18.4823636 C84.8363672,17.733875 85.7095908,17.140083 86.7375151,16.7009697 C87.7654395,16.2618564 88.9180946,16.042303 90.1955151,16.042303 C91.4729357,16.042303 92.6156111,16.2618564 93.6235757,16.7009697 C94.6315404,17.140083 95.4897944,17.7288852 96.1983636,18.4673939 C96.9069328,19.2059027 97.4458365,20.0641567 97.8150909,21.0421818 C98.1843453,22.0202069 98.3689697,23.0381361 98.3689697,24.096 C98.3689697,24.355476 98.3639798,24.6049685 98.354,24.8444848 C98.3440201,25.0840012 98.3190709,25.2835952 98.2791515,25.4432727 L86.153697,25.4432727 C86.213576,26.0620233 86.3632715,26.6109067 86.6027879,27.0899394 C86.8423042,27.5689721 87.1516749,27.9781397 87.5309091,28.3174545 C87.9101433,28.6567694 88.3392703,28.9162415 88.818303,29.0958788 C89.2973357,29.275516 89.7963206,29.3653333 90.3152727,29.3653333 C91.1136605,29.3653333 91.8671278,29.1707292 92.575697,28.7815152 C93.2842662,28.3923011 93.7682815,27.8783466 94.0277576,27.2396364 L97.4707879,28.197697 C96.8919567,29.3952787 95.9688346,30.378279 94.7013939,31.1467273 C93.4339532,31.9151756 91.922029,32.2993939 90.1655757,32.2993939 L90.1655757,32.2993939 Z M94.2373333,22.8385455 C94.1375348,21.6609234 93.703418,20.7178419 92.9349697,20.0092727 C92.1665214,19.3007035 91.2334196,18.9464242 90.1356363,18.9464242 C89.5967246,18.9464242 89.0927498,19.0412314 88.623697,19.2308485 C88.1546441,19.4204656 87.7404866,19.6849276 87.3812121,20.0242424 C87.0219376,20.3635573 86.7275365,20.7727249 86.498,21.2517576 C86.2684635,21.7307903 86.1337376,22.2597143 86.0938182,22.8385455 L94.2373333,22.8385455 Z M99.0540606,10.1442424 L103.065939,10.1442424 L103.065939,26.9701818 C103.065939,27.549013 103.205655,27.9980994 103.485091,28.3174545 C103.764527,28.6368097 104.163715,28.7964848 104.682667,28.7964848 C104.922183,28.7964848 105.186645,28.7565661 105.476061,28.6767273 C105.765476,28.5968885 106.039918,28.4970915 106.299394,28.3773333 L106.838303,31.4311515 C106.299391,31.6906276 105.67067,31.8902215 104.952121,32.0299394 C104.233572,32.1696573 103.584892,32.2395152 103.006061,32.2395152 C101.7486,32.2395152 100.775579,31.9051953 100.08697,31.2365455 C99.3983602,30.5678956 99.0540606,29.6148345 99.0540606,28.3773333 L99.0540606,10.1442424 Z M113.331636,32.2993939 C112.253813,32.2993939 111.255843,32.0898203 110.337697,31.6706667 C109.419551,31.2515131 108.631155,30.6726906 107.972485,29.9341818 C107.313815,29.1956731 106.79986,28.3324292 106.430606,27.3444242 C106.061352,26.3564193 105.876727,25.2935814 105.876727,24.1558788 C105.876727,23.0181761 106.051372,21.9603281 106.400667,20.982303 C106.749961,20.0042779 107.233977,19.1460239 107.852727,18.4075152 C108.471478,17.6690064 109.209975,17.0901839 110.068242,16.6710303 C110.926509,16.2518767 111.864601,16.042303 112.882545,16.042303 C114.040208,16.042303 115.083086,16.3217346 116.011212,16.8806061 C116.939338,17.4394775 117.662866,18.1679955 118.181818,19.0661818 L118.181818,10.1442424 L122.193697,10.1442424 L122.193697,27.3893333 C122.193697,27.8084869 122.263555,28.1078779 122.403273,28.2875152 C122.542991,28.4671524 122.782503,28.5669494 123.121818,28.5869091 L123.121818,32 C122.423229,32.1397179 121.854386,32.2095758 121.415273,32.2095758 C120.696724,32.2095758 120.107921,32.0299412 119.648848,31.6706667 C119.189775,31.3113921 118.930303,30.8423463 118.870424,30.2635152 L118.780606,29.2755152 C118.201775,30.2734999 117.418369,31.0269672 116.430364,31.5359394 C115.442359,32.0449116 114.40946,32.2993939 113.331636,32.2993939 L113.331636,32.2993939 Z M114.379515,28.886303 C114.758749,28.886303 115.147958,28.821435 115.547151,28.691697 C115.946345,28.5619589 116.315594,28.3773345 116.654909,28.1378182 C116.994224,27.8983018 117.298605,27.6188703 117.568061,27.2995152 C117.837516,26.98016 118.0421,26.6308706 118.181818,26.2516364 L118.181818,22.5092121 C118.022141,22.0700988 117.797597,21.665921 117.508182,21.2966667 C117.218766,20.9274123 116.889436,20.608062 116.520182,20.3386061 C116.150927,20.0691502 115.761719,19.8545867 115.352545,19.6949091 C114.943372,19.5352315 114.539194,19.4553939 114.14,19.4553939 C113.541209,19.4553939 112.987336,19.58513 112.478364,19.8446061 C111.969391,20.1040821 111.535274,20.4583614 111.176,20.9074545 C110.816725,21.3565477 110.537294,21.8705022 110.337697,22.4493333 C110.1381,23.0281645 110.038303,23.6269464 110.038303,24.245697 C110.038303,24.9043669 110.14808,25.5131285 110.367636,26.072 C110.587193,26.6308715 110.886584,27.1198767 111.265818,27.5390303 C111.645052,27.9581839 112.099129,28.287514 112.628061,28.5270303 C113.156993,28.7665467 113.740805,28.886303 114.379515,28.886303 L114.379515,28.886303 Z M129.196,32.2993939 C127.579265,32.2993939 126.351762,31.7804496 125.513454,30.7425455 C124.675147,29.7046413 124.256,28.1677678 124.256,26.1318788 L124.256,16.3117576 L128.267879,16.3117576 L128.267879,25.2636364 C128.267879,27.6787596 129.136112,28.886303 130.872606,28.886303 C131.651034,28.886303 132.404501,28.6517801 133.13303,28.1827273 C133.861559,27.7136744 134.455351,27.000126 134.914424,26.0420606 L134.914424,16.3117576 L138.926303,16.3117576 L138.926303,27.3893333 C138.926303,27.8084869 139.001151,28.1078779 139.150848,28.2875152 C139.300546,28.4671524 139.545049,28.5669494 139.884364,28.5869091 L139.884364,32 C139.48517,32.0798388 139.15085,32.1297373 138.881394,32.149697 C138.611938,32.1696567 138.367435,32.1796364 138.147879,32.1796364 C137.42933,32.1796364 136.845517,32.0149713 136.396424,31.6856364 C135.947331,31.3563014 135.682869,30.9022251 135.60303,30.3233939 L135.513212,29.0659394 C134.814623,30.143763 133.91645,30.9521185 132.818667,31.4910303 C131.720883,32.0299421 130.51334,32.2993939 129.196,32.2993939 L129.196,32.2993939 Z M155.748727,32 L151.736848,32 L151.736848,23.1978182 C151.736848,21.9403573 151.517295,21.0222251 151.078182,20.4433939 C150.639068,19.8645628 150.030307,19.5751515 149.251879,19.5751515 C148.852685,19.5751515 148.443517,19.6549891 148.024364,19.8146667 C147.60521,19.9743442 147.211012,20.1988874 146.841758,20.488303 C146.472503,20.7777186 146.138183,21.1220182 145.838788,21.5212121 C145.539392,21.920406 145.319839,22.3595128 145.180121,22.8385455 L145.180121,32 L141.168242,32 L141.168242,16.3117576 L144.790909,16.3117576 L144.790909,19.2158788 C145.36974,18.217894 146.208035,17.4394775 147.305818,16.8806061 C148.403601,16.3217346 149.641084,16.042303 151.018303,16.042303 C151.996328,16.042303 152.794704,16.2219376 153.413454,16.5812121 C154.032205,16.9404866 154.511231,17.4095325 154.850545,17.9883636 C155.18986,18.5671948 155.424383,19.2258549 155.554121,19.9643636 C155.683859,20.7028724 155.748727,21.4513497 155.748727,22.2098182 L155.748727,32 Z M163.649212,32.0898182 C162.591348,32.0898182 161.633297,31.8802445 160.77503,31.4610909 C159.916763,31.0419373 159.173276,30.4681047 158.544545,29.7395758 C157.915815,29.0110469 157.4318,28.1677624 157.092485,27.209697 C156.75317,26.2516316 156.583515,25.2337024 156.583515,24.1558788 C156.583515,23.0181761 156.76315,21.9603281 157.122424,20.982303 C157.481699,20.0042779 157.980684,19.1460239 158.619394,18.4075152 C159.258104,17.6690064 160.026541,17.0901839 160.924727,16.6710303 C161.822914,16.2518767 162.810904,16.042303 163.888727,16.042303 C165.106269,16.042303 166.174096,16.3167447 167.092242,16.8656364 C168.010388,17.414528 168.768845,18.1480358 169.367636,19.0661818 L169.367636,16.3117576 L172.870545,16.3117576 L172.870545,31.2515152 C172.870545,32.4091775 172.650992,33.4470661 172.211879,34.3652121 C171.772765,35.2833581 171.168994,36.0617746 170.400545,36.7004848 C169.632097,37.3391951 168.713965,37.8282003 167.646121,38.1675152 C166.578277,38.50683 165.415643,38.6764848 164.158182,38.6764848 C162.441648,38.6764848 160.999582,38.3920635 159.831939,37.8232121 C158.664297,37.2543608 157.661337,36.4509951 156.82303,35.4130909 L159.008606,33.2873939 C159.607397,34.0259027 160.360864,34.6047252 161.26903,35.0238788 C162.177196,35.4430324 163.140237,35.6526061 164.158182,35.6526061 C164.776932,35.6526061 165.370724,35.5677786 165.939576,35.3981212 C166.508427,35.2284638 167.012402,34.9640018 167.451515,34.6047273 C167.890628,34.2454527 168.234928,33.7863866 168.484424,33.2275152 C168.73392,32.6686437 168.858667,32.0099836 168.858667,31.2515152 L168.858667,29.2755152 C168.339715,30.1737015 167.611197,30.8672905 166.673091,31.356303 C165.734985,31.8453156 164.727036,32.0898182 163.649212,32.0898182 L163.649212,32.0898182 Z M164.996485,28.886303 C165.435598,28.886303 165.854745,28.8164451 166.253939,28.6767273 C166.653133,28.5370094 167.022382,28.3473951 167.361697,28.1078788 C167.701012,27.8683624 168.000403,27.5889309 168.259879,27.2695758 C168.519355,26.9502206 168.718949,26.6109109 168.858667,26.2516364 L168.858667,22.5092121 C168.499392,21.5910661 167.935539,20.8525685 167.167091,20.293697 C166.398643,19.7348255 165.595277,19.4553939 164.75697,19.4553939 C164.138219,19.4553939 163.579356,19.5901199 163.080364,19.8595758 C162.581371,20.1290317 162.152244,20.4883008 161.79297,20.9373939 C161.433695,21.3864871 161.159253,21.9004416 160.969636,22.4792727 C160.780019,23.0581039 160.685212,23.6568858 160.685212,24.2756364 C160.685212,24.9143466 160.794989,25.5131285 161.014545,26.072 C161.234102,26.6308715 161.538483,27.1198767 161.927697,27.5390303 C162.316911,27.9581839 162.770987,28.287514 163.289939,28.5270303 C163.808891,28.7665467 164.377734,28.886303 164.996485,28.886303 L164.996485,28.886303 Z" id="Baeldung"></path>
            <path d="M52.9412301,37.8345349 L51.0194774,37.8345349 L51.0194774,42.7423956 L50.6425182,42.7423956 L50.6425182,37.8345349 L48.7207656,37.8345349 L48.7207656,37.4945325 L52.9412301,37.4945325 L52.9412301,37.8345349 Z M58.898379,37.4945325 L58.898379,42.7423956 L58.5214199,42.7423956 L58.5214199,40.2293344 L55.2100922,40.2293344 L55.2100922,42.7423956 L54.833133,42.7423956 L54.833133,37.4945325 L55.2100922,37.4945325 L55.2100922,39.889332 L58.5214199,39.889332 L58.5214199,37.4945325 L58.898379,37.4945325 Z M64.8407453,42.4023932 L64.8407453,42.7423956 L61.3446337,42.7423956 L61.3446337,37.4945325 L64.7742231,37.4945325 L64.7742231,37.8345349 L61.7215929,37.8345349 L61.7215929,39.8967234 L64.3898726,39.8967234 L64.3898726,40.2219431 L61.7215929,40.2219431 L61.7215929,42.4023932 L64.8407453,42.4023932 Z M72.933712,38.7288891 C72.884436,38.6746855 72.812987,38.6167871 72.7193626,38.5551922 C72.6257383,38.4935972 72.516101,38.4356989 72.3904473,38.3814953 C72.2647936,38.3272918 72.126823,38.2829441 71.9765313,38.2484509 C71.8262397,38.2139577 71.6722546,38.1967114 71.5145715,38.1967114 C71.1647123,38.1967114 70.9072492,38.2607692 70.7421748,38.3888867 C70.5771003,38.5170042 70.4945644,38.6943949 70.4945644,38.9210643 C70.4945644,39.0491818 70.5204338,39.1538917 70.5721736,39.235197 C70.6239133,39.3165023 70.7039856,39.3879514 70.8123927,39.4495463 C70.9207998,39.5111413 71.0563066,39.565344 71.2189173,39.6121562 C71.3815279,39.6589683 71.5712375,39.7094754 71.7880517,39.763679 C72.0541419,39.8277377 72.2943586,39.8991868 72.508709,39.9780283 C72.7230594,40.0568698 72.9041458,40.1529565 73.0519737,40.2662912 C73.1998015,40.3796259 73.3143664,40.5188284 73.3956717,40.6839028 C73.4769771,40.8489773 73.5176291,41.0497738 73.5176291,41.2862984 C73.5176291,41.5523885 73.467122,41.7815183 73.3661063,41.9736945 C73.2650906,42.1658708 73.12712,42.3223196 72.9521904,42.4430457 C72.7772607,42.5637718 72.5740005,42.6524671 72.3424035,42.7091345 C72.1108065,42.7658018 71.8619666,42.7941351 71.5958765,42.7941351 C71.1967412,42.7941351 70.8111626,42.733773 70.4391292,42.6130469 C70.0670957,42.4923208 69.7307924,42.3161619 69.430209,42.0845649 L69.8071682,41.3749947 C69.8712269,41.4390534 69.963618,41.5105025 70.0843441,41.589344 C70.2050702,41.6681855 70.3455045,41.7408665 70.5056514,41.807389 C70.6657982,41.8739116 70.8394934,41.9305781 71.026742,41.9773902 C71.2139906,42.0242024 71.4086278,42.0476081 71.6106592,42.0476081 C71.9358805,42.0476081 72.1871841,41.9909416 72.3645775,41.8776069 C72.541971,41.7642722 72.6306664,41.5967365 72.6306664,41.3749947 C72.6306664,41.2419496 72.5974056,41.1310803 72.530883,41.0423836 C72.4643605,40.9536869 72.3695057,40.8760784 72.2463158,40.8095559 C72.1231259,40.7430334 71.9728365,40.6826712 71.7954431,40.6284677 C71.6180496,40.5742641 71.4160213,40.5175976 71.1893519,40.4584665 C70.9281893,40.3894801 70.7002914,40.3167992 70.5056514,40.2404215 C70.3110114,40.1640437 70.149635,40.0716527 70.0215175,39.9632456 C69.8934001,39.8548385 69.7960815,39.7279548 69.729559,39.5825907 C69.6630364,39.4372267 69.6297757,39.2610678 69.6297757,39.0541087 C69.6297757,38.7978738 69.6790509,38.5699759 69.7776028,38.3704083 C69.8761547,38.1708407 70.0104297,38.0033049 70.1804317,37.867796 C70.3504338,37.7322872 70.5512303,37.6300411 70.7828273,37.5610547 C71.0144242,37.4920684 71.2657279,37.4575758 71.5367456,37.4575758 C71.8915325,37.4575758 72.2192127,37.5142423 72.519796,37.627577 C72.8203793,37.7409117 73.0840018,37.881346 73.3106712,38.0488843 L72.933712,38.7288891 Z M75.4243148,42.7423956 L75.4243148,37.4945325 L77.626939,37.4945325 C77.8634636,37.4945325 78.0815064,37.5438078 78.281074,37.6423597 C78.4806417,37.7409116 78.651873,37.870259 78.7947733,38.0304059 C78.9376736,38.1905527 79.0497747,38.372871 79.13108,38.5773663 C79.2123854,38.7818615 79.2530374,38.9900493 79.2530374,39.2019359 C79.2530374,39.4236777 79.2148491,39.636793 79.1384714,39.8412882 C79.0620937,40.0457834 78.9549201,40.2281017 78.8169474,40.3882486 C78.6789747,40.5483954 78.5126708,40.676511 78.3180308,40.7725991 C78.1233908,40.8686872 77.9078117,40.9167306 77.6712871,40.9167306 L76.2521467,40.9167306 L76.2521467,42.7423956 L75.4243148,42.7423956 Z M76.2521467,40.1849863 L77.6195476,40.1849863 C77.7378099,40.1849863 77.8449835,40.1603487 77.9410716,40.1110727 C78.0371598,40.0617968 78.1196957,39.9928115 78.1886821,39.9041147 C78.2576684,39.815418 78.3118712,39.7119401 78.3512919,39.5936778 C78.3907127,39.4754155 78.4104228,39.3448361 78.4104228,39.2019359 C78.4104228,39.054108 78.3882489,38.9210649 78.3439006,38.8028026 C78.2995522,38.6845403 78.2379582,38.5822943 78.1591167,38.4960613 C78.0802751,38.4098284 77.9903479,38.3433069 77.8893322,38.2964947 C77.7883164,38.2496826 77.6836066,38.2262768 77.5751995,38.2262768 L76.2521467,38.2262768 L76.2521467,40.1849863 Z M81.1079836,42.7423956 L81.1079836,37.4945325 L83.3919127,37.4945325 C83.6284373,37.4945325 83.8464801,37.5438078 84.0460477,37.6423597 C84.2456154,37.7409116 84.4168467,37.870259 84.559747,38.0304059 C84.7026473,38.1905527 84.8147484,38.372871 84.8960537,38.5773663 C84.9773591,38.7818615 85.0180111,38.9900493 85.0180111,39.2019359 C85.0180111,39.3793293 84.9933735,39.5493288 84.9440976,39.7119395 C84.8948216,39.8745501 84.8258363,40.0248395 84.7371396,40.1628122 C84.6484429,40.3007849 84.5400374,40.4202773 84.4119199,40.521293 C84.2838024,40.6223087 84.143368,40.6974534 83.9906126,40.7467294 L85.2249691,42.7423956 L84.2862668,42.7423956 L83.1479979,40.9167306 L81.9358155,40.9167306 L81.9358155,42.7423956 L81.1079836,42.7423956 Z M81.9358155,40.1849863 L83.3845213,40.1849863 C83.5027836,40.1849863 83.6099572,40.1591168 83.7060454,40.107377 C83.8021335,40.0556373 83.8846695,39.9841882 83.9536558,39.8930277 C84.0226421,39.8018672 84.0768449,39.6971573 84.1162656,39.5788951 C84.1556864,39.4606328 84.1753965,39.334981 84.1753965,39.2019359 C84.1753965,39.0688908 84.1519908,38.943239 84.1051786,38.8249767 C84.0583664,38.7067144 83.9967724,38.6032364 83.9203947,38.5145397 C83.844017,38.425843 83.7553216,38.3556258 83.6543059,38.3038861 C83.5532901,38.2521463 83.4485803,38.2262768 83.3401732,38.2262768 L81.9358155,38.2262768 L81.9358155,40.1849863 Z M87.0725239,42.7423956 L87.0725239,37.4945325 L87.9003558,37.4945325 L87.9003558,42.7423956 L87.0725239,42.7423956 Z M90.9896585,39.0467174 L90.9896585,42.7423956 L90.1618266,42.7423956 L90.1618266,37.4945325 L90.8122659,37.4945325 L93.8131566,41.278907 L93.8131566,37.5019239 L94.6483799,37.5019239 L94.6483799,42.7423956 L93.9609838,42.7423956 L90.9896585,39.0467174 Z M100.583355,42.0919562 C100.139871,42.5502226 99.6298727,42.7793524 99.053344,42.7793524 C98.7034848,42.7793524 98.3782683,42.7066714 98.077685,42.5613074 C97.7771017,42.4159433 97.515943,42.2200743 97.2942012,41.9736945 C97.0724594,41.7273148 96.8987643,41.4415185 96.7731106,41.1162972 C96.6474569,40.7910759 96.584631,40.4510769 96.584631,40.09629 C96.584631,39.7415031 96.6474569,39.4039679 96.7731106,39.0836742 C96.8987643,38.7633805 97.0724594,38.4825117 97.2942012,38.2410595 C97.515943,37.9996074 97.7795654,37.8086659 98.0850764,37.6682294 C98.3905873,37.5277929 98.723195,37.4575758 99.0829095,37.4575758 C99.5855242,37.4575758 100.006827,37.5622856 100.346831,37.7717084 C100.686836,37.9811312 100.943067,38.2583043 101.115532,38.603236 L100.479876,39.0615001 C100.336976,38.7756996 100.139875,38.5613524 99.8885673,38.4184521 C99.6372599,38.2755518 99.3613187,38.2041028 99.0607354,38.2041028 C98.8143556,38.2041028 98.5901534,38.2570736 98.388122,38.3630169 C98.1860906,38.4689602 98.0136273,38.6093946 97.870727,38.7843242 C97.7278267,38.9592539 97.6181894,39.1625141 97.5418117,39.3941111 C97.4654339,39.6257081 97.4272456,39.8671567 97.4272456,40.1184641 C97.4272456,40.3845542 97.4703615,40.6333941 97.5565944,40.8649911 C97.6428273,41.0965881 97.7610878,41.2986165 97.9113795,41.4710823 C98.0616711,41.6435481 98.2402938,41.7802869 98.4472528,41.8813026 C98.6542118,41.9823183 98.8784141,42.0328254 99.1198663,42.0328254 C99.3859564,42.0328254 99.6409557,41.9712314 99.8848716,41.8480415 C100.128788,41.7248516 100.361613,41.5302145 100.583355,41.2641243 L100.583355,40.7023812 L99.4820427,40.7023812 L99.4820427,40.0888986 L101.278142,40.0888986 L101.278142,42.7423956 L100.583355,42.7423956 L100.583355,42.0919562 Z M106.37761,42.7423956 L106.37761,37.4945325 L108.55806,37.4945325 C108.779802,37.4945325 108.984294,37.541344 109.171542,37.6349683 C109.358791,37.7285926 109.520167,37.8530126 109.655676,38.0082318 C109.791185,38.1634511 109.897127,38.3383781 109.973505,38.5330181 C110.049882,38.7276581 110.088071,38.9235271 110.088071,39.120631 C110.088071,39.3128072 110.058505,39.4988211 109.999374,39.6786784 C109.940243,39.8585356 109.856475,40.0199119 109.748068,40.1628122 C109.639661,40.3057125 109.509082,40.423973 109.356326,40.5175973 C109.203571,40.6112216 109.036035,40.6728157 108.853714,40.7023812 L110.161984,42.7423956 L109.725894,42.7423956 L108.454581,40.7615121 L106.754569,40.7615121 L106.754569,42.7423956 L106.37761,42.7423956 Z M106.754569,40.4141183 L108.595017,40.4141183 C108.762555,40.4141183 108.915308,40.3771619 109.053281,40.303248 C109.191253,40.229334 109.309514,40.1320155 109.408066,40.0112894 C109.506618,39.8905633 109.581762,39.7525927 109.633502,39.5973734 C109.685242,39.4421542 109.711111,39.2832416 109.711111,39.120631 C109.711111,38.9530927 109.680314,38.7917164 109.618719,38.6364971 C109.557125,38.4812778 109.473357,38.3445391 109.367413,38.2262768 C109.26147,38.1080145 109.138282,38.0131597 108.997846,37.9417096 C108.857409,37.8702595 108.705888,37.8345349 108.543277,37.8345349 L106.754569,37.8345349 L106.754569,40.4141183 Z M115.749565,42.4023932 L115.749565,42.7423956 L112.253454,42.7423956 L112.253454,37.4945325 L115.683043,37.4945325 L115.683043,37.8345349 L112.630413,37.8345349 L112.630413,39.8967234 L115.298693,39.8967234 L115.298693,40.2219431 L112.630413,40.2219431 L112.630413,42.4023932 L115.749565,42.4023932 Z M120.797577,38.3667126 C120.457573,37.9872877 119.97714,37.7975782 119.356263,37.7975782 C118.843793,37.7975782 118.470533,37.8948967 118.236472,38.0895367 C118.002412,38.2841768 117.885383,38.5465673 117.885383,38.8767162 C117.885383,39.0442544 117.914948,39.1834569 117.974079,39.2943278 C118.03321,39.4051987 118.125601,39.5000535 118.251255,39.5788951 C118.376909,39.6577366 118.535821,39.7242581 118.727998,39.7784617 C118.920174,39.8326652 119.151767,39.8893317 119.422785,39.9484629 C119.703658,40.007594 119.958657,40.0728837 120.187791,40.1443338 C120.416924,40.215784 120.611561,40.3057112 120.771708,40.4141183 C120.931855,40.5225254 121.055043,40.6555685 121.141276,40.8132516 C121.227508,40.9709346 121.270624,41.1655717 121.270624,41.3971687 C121.270624,41.6287657 121.225045,41.8307941 121.133884,42.00326 C121.042724,42.1757258 120.914608,42.3198558 120.749534,42.4356543 C120.584459,42.5514528 120.387358,42.6389163 120.158225,42.6980475 C119.929092,42.7571786 119.674093,42.7867437 119.39322,42.7867437 C118.575239,42.7867437 117.882922,42.5255851 117.316249,42.00326 L117.515815,41.7002143 C117.737557,41.9318113 118.008571,42.1153615 118.328864,42.2508704 C118.649158,42.3863793 119.008867,42.4541327 119.408002,42.4541327 C119.866269,42.4541327 120.224746,42.3703648 120.483445,42.2028266 C120.742144,42.0352883 120.871491,41.781521 120.871491,41.4415169 C120.871491,41.269051 120.836998,41.1224573 120.768012,41.0017312 C120.699026,40.8810051 120.59678,40.7762952 120.461271,40.6875985 C120.325762,40.5989018 120.15453,40.5225252 119.947571,40.4584665 C119.740612,40.3944077 119.499164,40.3328137 119.223219,40.2736826 C118.942346,40.2145514 118.694738,40.1517255 118.480387,40.085203 C118.266037,40.0186804 118.086182,39.9349126 117.940818,39.8338968 C117.795454,39.7328811 117.685817,39.610925 117.611903,39.4680247 C117.537989,39.3251244 117.501032,39.1452699 117.501032,38.9284557 C117.501032,38.6919311 117.546612,38.4825114 117.637773,38.3001904 C117.728933,38.1178694 117.855817,37.9638843 118.018427,37.8382306 C118.181038,37.7125769 118.375675,37.6177221 118.602345,37.5536634 C118.829014,37.4896046 119.080318,37.4575758 119.356263,37.4575758 C119.696267,37.4575758 119.99931,37.5080829 120.2654,37.6090986 C120.53149,37.7101143 120.772938,37.8640993 120.989753,38.0710583 L120.797577,38.3667126 Z M125.387325,42.7793524 C125.022683,42.7793524 124.690076,42.7029758 124.389492,42.5502203 C124.088909,42.3974649 123.830214,42.1979002 123.6134,41.9515205 C123.396586,41.7051407 123.22905,41.4218082 123.110788,41.1015145 C122.992525,40.7812208 122.933395,40.4535406 122.933395,40.1184641 C122.933395,39.7686048 122.996221,39.4335333 123.121875,39.1132396 C123.247528,38.7929459 123.419992,38.5096134 123.63927,38.2632336 C123.858548,38.0168538 124.118474,37.8209848 124.419058,37.6756208 C124.719641,37.5302567 125.044858,37.4575758 125.394717,37.4575758 C125.759359,37.4575758 126.093198,37.5351842 126.396246,37.6904035 C126.699293,37.8456227 126.957988,38.048883 127.172338,38.3001904 C127.386688,38.5514978 127.552992,38.8360621 127.671255,39.1538921 C127.789517,39.471722 127.848647,39.7932428 127.848647,40.1184641 C127.848647,40.473251 127.785821,40.8107862 127.660168,41.1310799 C127.534514,41.4513736 127.362051,41.7334742 127.142773,41.9773902 C126.923495,42.2213062 126.663568,42.4159433 126.362985,42.5613074 C126.062401,42.7066714 125.737185,42.7793524 125.387325,42.7793524 L125.387325,42.7793524 Z M123.310354,40.1184641 C123.310354,40.4190474 123.360861,40.7085393 123.461877,40.9869484 C123.562893,41.2653576 123.705791,41.5117337 123.890576,41.7260841 C124.075361,41.9404345 124.295867,42.1116659 124.552102,42.2397834 C124.808337,42.3679008 125.089206,42.4319586 125.394717,42.4319586 C125.710083,42.4319586 125.994647,42.3654371 126.248418,42.232392 C126.50219,42.0993469 126.719001,41.923188 126.898858,41.70391 C127.078715,41.484632 127.217918,41.2370241 127.316469,40.9610787 C127.415021,40.6851333 127.464297,40.4042646 127.464297,40.1184641 C127.464297,39.8178807 127.412558,39.5283888 127.309078,39.2499797 C127.205599,38.9715705 127.061469,38.7251945 126.876684,38.510844 C126.691899,38.2964936 126.473856,38.1252623 126.222549,37.9971448 C125.971241,37.8690273 125.6953,37.8049695 125.394717,37.8049695 C125.079351,37.8049695 124.793554,37.8714911 124.537319,38.0045361 C124.281085,38.1375812 124.06181,38.3137401 123.879489,38.5330181 C123.697168,38.7522961 123.556733,38.9999041 123.458181,39.2758494 C123.35963,39.5517948 123.310354,39.8326635 123.310354,40.1184641 L123.310354,40.1184641 Z M132.046653,42.4319586 C132.40144,42.4319586 132.69586,42.3654371 132.92992,42.232392 C133.163981,42.0993469 133.348763,41.9244199 133.484272,41.7076057 C133.619781,41.4907915 133.715868,41.2444154 133.772535,40.9684701 C133.829202,40.6925247 133.857536,40.4141197 133.857536,40.1332468 L133.857536,37.4945325 L134.234495,37.4945325 L134.234495,40.1332468 C134.234495,40.4831061 134.196307,40.8181775 134.119929,41.1384713 C134.043551,41.458765 133.919131,41.7408656 133.746665,41.9847816 C133.574199,42.2286975 133.349997,42.4221028 133.074052,42.565003 C132.798106,42.7079033 132.458107,42.7793524 132.054045,42.7793524 C131.635199,42.7793524 131.285345,42.7042077 131.004472,42.553916 C130.723599,42.4036243 130.498165,42.2040597 130.328163,41.9552161 C130.158161,41.7063726 130.037437,41.4242719 129.965986,41.1089058 C129.894536,40.7935397 129.858812,40.4683233 129.858812,40.1332468 L129.858812,37.4945325 L130.235771,37.4945325 L130.235771,40.1332468 C130.235771,40.4239749 130.264104,40.7073074 130.320772,40.9832528 C130.377439,41.2591981 130.475989,41.5043423 130.616426,41.7186927 C130.756862,41.9330431 130.942876,42.1055064 131.174473,42.2360877 C131.40607,42.366669 131.696794,42.4319586 132.046653,42.4319586 L132.046653,42.4319586 Z M136.606836,42.7423956 L136.606836,37.4945325 L138.787286,37.4945325 C139.009028,37.4945325 139.21352,37.541344 139.400769,37.6349683 C139.588017,37.7285926 139.749394,37.8530126 139.884902,38.0082318 C140.020411,38.1634511 140.126353,38.3383781 140.202731,38.5330181 C140.279109,38.7276581 140.317297,38.9235271 140.317297,39.120631 C140.317297,39.3128072 140.287732,39.4988211 140.228601,39.6786784 C140.169469,39.8585356 140.085702,40.0199119 139.977294,40.1628122 C139.868887,40.3057125 139.738308,40.423973 139.585553,40.5175973 C139.432797,40.6112216 139.265261,40.6728157 139.08294,40.7023812 L140.39121,42.7423956 L139.95512,42.7423956 L138.683807,40.7615121 L136.983795,40.7615121 L136.983795,42.7423956 L136.606836,42.7423956 Z M136.983795,40.4141183 L138.824243,40.4141183 C138.991781,40.4141183 139.144534,40.3771619 139.282507,40.303248 C139.42048,40.229334 139.53874,40.1320155 139.637292,40.0112894 C139.735844,39.8905633 139.810989,39.7525927 139.862728,39.5973734 C139.914468,39.4421542 139.940338,39.2832416 139.940338,39.120631 C139.940338,38.9530927 139.909541,38.7917164 139.847946,38.6364971 C139.786351,38.4812778 139.702583,38.3445391 139.59664,38.2262768 C139.490696,38.1080145 139.367508,38.0131597 139.227072,37.9417096 C139.086635,37.8702595 138.935114,37.8345349 138.772503,37.8345349 L136.983795,37.8345349 L136.983795,40.4141183 Z M142.120503,40.0815073 C142.120503,39.7661412 142.175938,39.4520117 142.286809,39.1391093 C142.39768,38.826207 142.559056,38.5465702 142.770943,38.3001904 C142.982829,38.0538106 143.242756,37.8530141 143.550731,37.6977948 C143.858706,37.5425756 144.209792,37.4649671 144.603999,37.4649671 C145.072121,37.4649671 145.47125,37.5721407 145.801399,37.7864911 C146.131548,38.0008415 146.377924,38.2755509 146.540535,38.6106274 L146.230098,38.7880199 C146.136473,38.6056989 146.026836,38.4529457 145.901182,38.3297558 C145.775529,38.2065659 145.640022,38.1067836 145.494658,38.0304059 C145.349294,37.9540281 145.197772,37.8985935 145.040089,37.8641004 C144.882406,37.8296072 144.727189,37.8123609 144.574434,37.8123609 C144.239357,37.8123609 143.943706,37.8801143 143.687471,38.0156232 C143.431236,38.151132 143.214425,38.3272909 143.037032,38.5441052 C142.859638,38.7609194 142.725363,39.0060636 142.634203,39.2795451 C142.543042,39.5530267 142.497463,39.827736 142.497463,40.1036814 C142.497463,40.4141199 142.551665,40.7097712 142.660073,40.9906441 C142.76848,41.2715171 142.916305,41.519125 143.103554,41.7334754 C143.290803,41.9478259 143.512541,42.1190572 143.768776,42.2471747 C144.025011,42.3752922 144.300952,42.43935 144.596608,42.43935 C144.754291,42.43935 144.916899,42.4196399 145.084437,42.3802191 C145.251976,42.3407984 145.41212,42.2792044 145.564876,42.1954352 C145.717631,42.1116661 145.860529,42.0044925 145.993574,41.8739112 C146.126619,41.7433299 146.237489,41.5893449 146.326185,41.4119514 L146.651405,41.5671699 C146.562708,41.7642738 146.441984,41.9392008 146.289229,42.0919562 C146.136473,42.2447117 145.966474,42.3728273 145.779225,42.4763068 C145.591976,42.5797863 145.393644,42.6573947 145.184221,42.7091345 C144.974798,42.7608743 144.769074,42.7867437 144.567042,42.7867437 C144.207328,42.7867437 143.878416,42.7079034 143.580296,42.5502203 C143.282177,42.3925373 143.024714,42.1868132 142.8079,41.9330421 C142.591085,41.6792709 142.422318,41.3910109 142.301592,41.0682534 C142.180866,40.7454959 142.120503,40.4165838 142.120503,40.0815073 L142.120503,40.0815073 Z M152.157681,42.4023932 L152.157681,42.7423956 L148.66157,42.7423956 L148.66157,37.4945325 L152.091159,37.4945325 L152.091159,37.8345349 L149.038529,37.8345349 L149.038529,39.8967234 L151.706808,39.8967234 L151.706808,40.2219431 L149.038529,40.2219431 L149.038529,42.4023932 L152.157681,42.4023932 Z" id="THE-SPRING-RESOURCE"></path>
            <g id="tree-leaf" transform="translate(23.616004, 25.616713) scale(1, -1) rotate(78.000000) translate(-23.616004, -25.616713) translate(4.616004, 10.616713)">
                <g id="Capa_1" transform="translate(0.000000, -0.000000)">
                    <path d="M9.31657895,3.04208518 C1.77276316,7.52854382 2.20578947,14.8361835 2.46552632,17.5400344 C12.2092105,5.70992793 26.7836842,6.28363145 26.7836842,6.28363145 C26.7836842,6.28363145 6.12394737,13.5471712 0.0560526316,28.1126863 C-0.423157895,29.2625209 2.30447368,30.7578722 2.92697368,29.3984619 C4.785,25.3477428 7.37407895,22.3097035 7.37407895,22.3097035 C11.1939474,23.7666192 17.8018421,25.4739738 22.4853947,22.0960819 C28.7064474,17.6088141 28.0705263,7.66165274 36.9513158,2.81834889 C39.0256579,1.68752989 19.5438158,-3.04087142 9.31657895,3.04208518 L9.31657895,3.04208518 Z" id="Shape"></path>
                </g>
            </g>
        </g>
    </g>
</svg>