<?xml version="1.0" encoding="UTF-8" standalone="no"?>
<svg width="180px" height="40px" viewBox="0 0 180 40" version="1.1" xmlns="http://www.w3.org/2000/svg" xmlns:xlink="http://www.w3.org/1999/xlink">
    <!-- Generator: Sketch 3.6 (26304) - http://www.bohemiancoding.com/sketch -->
    <title>Artboard 3</title>
    <desc>Created with Sketch.</desc>
    <defs></defs>
    <g id="Page-1" stroke="none" stroke-width="1" fill="none" fill-rule="evenodd">
        <g id="Artboard-3" fill="#FFFFFF">
            <path d="M59.9860293,22.7146489 C59.9860293,23.5068694 59.8275876,24.2022525 59.5106994,24.8008191 C59.1938111,25.3993857 58.7580964,25.9011178 58.203542,26.3060306 C57.6489877,26.7109433 57.0064185,27.0190244 56.2758151,27.2302832 C55.5452118,27.441542 54.7662066,27.5471698 53.9387763,27.5471698 L44.8811004,27.5471698 L44.8811004,8.79804485 L54.9158434,8.79804485 C55.5672247,8.79804485 56.15698,8.93888194 56.685127,9.22056035 C57.213274,9.50223875 57.6621922,9.86753495 58.0318951,10.3164599 C58.401598,10.7653849 58.6876734,11.2759193 58.8901297,11.8480786 C59.0925861,12.4202378 59.1938127,12.9967897 59.1938127,13.5777514 C59.1938127,14.4932062 58.9649525,15.3514322 58.5072251,16.1524551 C58.0494977,16.9534781 57.3805215,17.5476346 56.5002765,17.9349424 C57.5741754,18.2518306 58.4235991,18.8195801 59.048573,19.6382079 C59.673547,20.4568358 59.9860293,21.4823059 59.9860293,22.7146489 L59.9860293,22.7146489 Z M56.3154259,22.0280612 C56.3154259,21.6935681 56.2582109,21.3722835 56.143779,21.0641977 C56.0293472,20.756112 55.8753066,20.4876413 55.6816527,20.2587776 C55.4879988,20.0299139 55.2591385,19.8494664 54.995065,19.7174296 C54.7309915,19.5853928 54.440515,19.5193755 54.1236268,19.5193755 L48.5252966,19.5193755 L48.5252966,24.4575253 L53.9387763,24.4575253 C54.2732694,24.4575253 54.5857517,24.395909 54.8762326,24.2726747 C55.1667134,24.1494404 55.4175795,23.9777952 55.6288383,23.757734 C55.8400971,23.5376727 56.0073411,23.2780044 56.1305754,22.9787211 C56.2538097,22.6794378 56.3154259,22.3625543 56.3154259,22.0280612 L56.3154259,22.0280612 Z M48.5252966,11.9140966 L48.5252966,16.6409887 L53.3842247,16.6409887 C54.0003962,16.6409887 54.5241342,16.429733 54.9554542,16.0072154 C55.3867743,15.5846978 55.6024311,15.0037448 55.6024311,14.264339 C55.6024311,13.5425381 55.4043789,12.9703874 55.0082686,12.5478698 C54.6121584,12.1253522 54.1236297,11.9140966 53.542668,11.9140966 L48.5252966,11.9140966 Z M64.5309472,27.811242 C63.861961,27.811242 63.2369964,27.701213 62.6560347,27.4811518 C62.075073,27.2610905 61.5733409,26.9530094 61.1508233,26.5568991 C60.7283057,26.1607889 60.3982187,25.6986672 60.1605526,25.1705202 C59.9228864,24.6423732 59.8040551,24.0614202 59.8040551,23.4276438 C59.8040551,22.7762625 59.9492934,22.1733037 60.2397742,21.6187493 C60.5302551,21.064195 60.9351617,20.5932709 61.4545063,20.2059631 C61.9738508,19.8186553 62.5944143,19.5149754 63.3162152,19.2949141 C64.0380161,19.0748529 64.8302247,18.9648239 65.6928648,18.9648239 C66.3090363,18.9648239 66.9119951,19.0176378 67.5017593,19.1232672 C68.0915234,19.2288966 68.6152613,19.378536 69.0729888,19.5721899 L69.0729888,18.7799734 C69.0729888,17.8645185 68.8133204,17.1603331 68.2939758,16.6673959 C67.7746313,16.1744587 67.0044284,15.9279938 65.9833442,15.9279938 C65.2439384,15.9279938 64.5221483,16.0600286 63.8179523,16.3241021 C63.1137563,16.5881756 62.3919662,16.9754776 61.6525604,17.4860197 L60.5698645,15.2414061 C62.3479594,14.0618778 64.2668647,13.4721225 66.3266381,13.4721225 C68.3159918,13.4721225 69.8607986,13.9606511 70.9611049,14.9377231 C72.0614111,15.9147951 72.611556,17.3275671 72.611556,19.1760816 L72.611556,23.4804582 C72.611556,23.8501611 72.6775734,24.1142306 72.8096101,24.2726747 C72.9416469,24.4311189 73.1573037,24.519142 73.456587,24.5367469 L73.456587,27.5471698 C72.8580204,27.6704041 72.3386836,27.7320203 71.8985611,27.7320203 C71.2295749,27.7320203 70.7146393,27.5823809 70.3537388,27.2830976 C69.9928384,26.9838143 69.7683793,26.58771 69.6803548,26.0947728 L69.6011331,25.3289635 C68.9849616,26.1387889 68.2367646,26.7549512 67.3565196,27.1774688 C66.4762746,27.5999864 65.5344265,27.811242 64.5309472,27.811242 L64.5309472,27.811242 Z M65.5344215,25.2233346 C66.1329881,25.2233346 66.7007376,25.1177068 67.2376871,24.906448 C67.7746365,24.6951892 68.1927466,24.413515 68.49203,24.061417 C68.8793378,23.7621337 69.0729888,23.4276456 69.0729888,23.0579427 L69.0729888,21.4735096 C68.6504711,21.3150655 68.1927506,21.1874319 67.6998134,21.0906049 C67.2068762,20.993778 66.731551,20.9453652 66.2738236,20.9453652 C65.3583688,20.9453652 64.6101718,21.1522197 64.0292101,21.5659349 C63.4482484,21.97965 63.1577719,22.503388 63.1577719,23.1371644 C63.1577719,23.735731 63.3866321,24.2330619 63.8443595,24.6291722 C64.3020869,25.0252824 64.8654353,25.2233346 65.5344215,25.2233346 L65.5344215,25.2233346 Z M80.5894123,27.811242 C79.4803036,27.811242 78.4768393,27.6219922 77.5789894,27.2434868 C76.6811395,26.8649814 75.9153378,26.3500458 75.2815614,25.6986645 C74.647785,25.0472832 74.1592564,24.2902839 73.8159608,23.4276438 C73.4726653,22.5650037 73.3010201,21.6583649 73.3010201,20.7077003 C73.3010201,19.7218259 73.4682641,18.7931813 73.8027572,17.9217388 C74.1372503,17.0502962 74.6213778,16.2844945 75.2551542,15.6243108 C75.8889306,14.964127 76.6591335,14.4403891 77.5657858,14.0530813 C78.4724382,13.6657735 79.4891059,13.4721225 80.6158195,13.4721225 C81.7425331,13.4721225 82.7503986,13.6657735 83.639446,14.0530813 C84.5284935,14.4403891 85.2854928,14.9597259 85.9104668,15.6111072 C86.5354407,16.2624885 87.0107659,17.0194878 87.3364566,17.8821279 C87.6621472,18.744768 87.8249901,19.6426045 87.8249901,20.5756642 C87.8249901,20.8045279 87.8205889,21.0245858 87.8117865,21.2358446 C87.802984,21.4471035 87.7809783,21.6231498 87.7457685,21.763989 L77.0508451,21.763989 C77.1036598,22.3097409 77.2356945,22.7938684 77.4469533,23.216386 C77.6582121,23.6389036 77.931084,23.9997987 78.2655771,24.299082 C78.6000702,24.5983653 78.9785699,24.8272255 79.4010875,24.9856696 C79.8236051,25.1441137 80.263721,25.2233346 80.7214484,25.2233346 C81.4256444,25.2233346 82.0902194,25.0516894 82.7151934,24.7083938 C83.3401673,24.3650983 83.7670798,23.9117789 83.9959435,23.3484221 L87.0327736,24.1934531 C86.5222315,25.2497471 85.708017,26.1167754 84.5901059,26.7945641 C83.4721947,27.4723527 82.1386435,27.811242 80.5894123,27.811242 L80.5894123,27.811242 Z M84.180794,19.466561 C84.0927695,18.4278719 83.7098687,17.5960529 83.03208,16.9710789 C82.3542913,16.3461049 81.5312746,16.0336227 80.5630051,16.0336227 C80.0876728,16.0336227 79.6431557,16.1172447 79.2294406,16.2844912 C78.8157254,16.4517378 78.4504292,16.6849992 78.133541,16.9842825 C77.8166528,17.2835658 77.5569844,17.6444609 77.3545281,18.0669785 C77.1520717,18.4894961 77.0332404,18.9560189 76.9980306,19.466561 L84.180794,19.466561 Z M88.2239748,8.26990049 L91.762542,8.26990049 L91.762542,23.1107571 C91.762542,23.6212993 91.8857745,24.0174036 92.1322431,24.299082 C92.3787117,24.5807604 92.7308044,24.7215975 93.1885318,24.7215975 C93.3997906,24.7215975 93.633052,24.6863882 93.8883231,24.6159686 C94.1435941,24.545549 94.3856579,24.4575258 94.6145216,24.3518964 L95.0898515,27.0454327 C94.6145192,27.2742964 94.0599732,27.4503427 93.4261968,27.573577 C92.7924204,27.6968113 92.2202697,27.7584276 91.7097276,27.7584276 C90.6006189,27.7584276 89.7423929,27.4635499 89.1350238,26.8737857 C88.5276547,26.2840216 88.2239748,25.4434002 88.2239748,24.3518964 L88.2239748,8.26990049 Z M100.611837,27.811242 C99.6611719,27.811242 98.7809401,27.6263933 97.9711147,27.2566904 C97.1612893,26.8869875 96.4659062,26.3764531 95.8849445,25.7250718 C95.3039828,25.0736904 94.8506634,24.3122899 94.5249727,23.4408474 C94.1992821,22.5694048 94.0364392,21.6319579 94.0364392,20.6284786 C94.0364392,19.6249993 94.1904798,18.6919536 94.4985655,17.8293135 C94.8066513,16.9666734 95.2335637,16.209674 95.7793156,15.5582927 C96.3250675,14.9069114 96.976439,14.396377 97.7334497,14.0266741 C98.4904604,13.6569712 99.3178783,13.4721225 100.215728,13.4721225 C101.236812,13.4721225 102.156655,13.7185874 102.975283,14.2115246 C103.79391,14.7044618 104.432078,15.347031 104.889806,16.1392515 L104.889806,8.26990049 L108.428373,8.26990049 L108.428373,23.4804582 C108.428373,23.8501611 108.489989,24.1142306 108.613224,24.2726747 C108.736458,24.4311189 108.947714,24.519142 109.246997,24.5367469 L109.246997,27.5471698 C108.630825,27.6704041 108.129093,27.7320203 107.741785,27.7320203 C107.108009,27.7320203 106.588672,27.5735786 106.18376,27.2566904 C105.778847,26.9398022 105.549987,26.5260933 105.497172,26.0155512 L105.41795,25.144113 C104.907408,26.024358 104.216426,26.688933 103.344984,27.1378579 C102.473541,27.5867829 101.562501,27.811242 100.611837,27.811242 L100.611837,27.811242 Z M101.536089,24.8008191 C101.870582,24.8008191 102.213873,24.743604 102.565971,24.6291722 C102.918069,24.5147403 103.243754,24.3518975 103.543038,24.1406387 C103.842321,23.9293799 104.110792,23.6829149 104.348458,23.4012365 C104.586124,23.1195581 104.766572,22.811477 104.889806,22.4769839 L104.889806,19.1760816 C104.748967,18.7887738 104.550915,18.4322799 104.295643,18.1065893 C104.040372,17.7808986 103.749896,17.4992245 103.424205,17.2615583 C103.098515,17.0238922 102.755224,16.8346423 102.394324,16.6938031 C102.033423,16.5529639 101.676929,16.4825454 101.324831,16.4825454 C100.796684,16.4825454 100.308156,16.5969755 99.8592308,16.8258392 C99.4103059,17.0547029 99.027405,17.3671852 98.7105168,17.7632954 C98.3936286,18.1594057 98.1471637,18.6127251 97.9711147,19.1232672 C97.7950657,19.6338093 97.7070425,20.1619484 97.7070425,20.7077003 C97.7070425,21.288662 97.803868,21.8256034 97.9975219,22.3185406 C98.1911758,22.8114778 98.4552454,23.2427914 98.7897385,23.6124943 C99.1242316,23.9821972 99.524737,24.2726737 99.9912669,24.4839325 C100.457797,24.6951913 100.972732,24.8008191 101.536089,24.8008191 L101.536089,24.8008191 Z M114.399281,27.811242 C112.973284,27.811242 111.890599,27.3535215 111.151193,26.4380666 C110.411787,25.5226118 110.04209,24.1670549 110.04209,22.371355 L110.04209,13.7097874 L113.580657,13.7097874 L113.580657,21.6055457 C113.580657,23.7357386 114.346459,24.8008191 115.878085,24.8008191 C116.564676,24.8008191 117.229251,24.5939646 117.87183,24.1802495 C118.514409,23.7665343 119.038147,23.1371686 119.44306,22.2921334 L119.44306,13.7097874 L122.981627,13.7097874 L122.981627,23.4804582 C122.981627,23.8501611 123.047644,24.1142306 123.179681,24.2726747 C123.311718,24.4311189 123.527374,24.519142 123.826658,24.5367469 L123.826658,27.5471698 C123.47456,27.6175894 123.179682,27.661601 122.942016,27.6792059 C122.70435,27.6968108 122.488693,27.7056131 122.295039,27.7056131 C121.661263,27.7056131 121.146327,27.5603749 120.750217,27.269894 C120.354107,26.9794132 120.120845,26.5789077 120.050426,26.0683656 L119.971204,24.9592624 C119.355032,25.909927 118.562824,26.6229148 117.594554,27.0982471 C116.626285,27.5735794 115.561204,27.811242 114.399281,27.811242 L114.399281,27.811242 Z M137.614102,27.5471698 L134.075535,27.5471698 L134.075535,19.7834476 C134.075535,18.6743389 133.881884,17.8645257 133.494576,17.3539836 C133.107268,16.8434415 132.570327,16.5881742 131.883736,16.5881742 C131.531638,16.5881742 131.170743,16.6585928 130.80104,16.799432 C130.431337,16.9402712 130.083645,17.1383233 129.757955,17.3935944 C129.432264,17.6488654 129.137386,17.9525454 128.873313,18.3046434 C128.609239,18.6567414 128.415588,19.0440434 128.292354,19.466561 L128.292354,27.5471698 L124.753787,27.5471698 L124.753787,13.7097874 L127.94906,13.7097874 L127.94906,16.2712876 C128.459602,15.3910426 129.198997,14.7044618 130.167267,14.2115246 C131.135536,13.7185874 132.227023,13.4721225 133.441762,13.4721225 C134.304402,13.4721225 135.008587,13.6305642 135.554339,13.9474524 C136.100091,14.2643406 136.522602,14.6780496 136.821886,15.1885917 C137.121169,15.6991338 137.328023,16.2800868 137.442455,16.9314681 C137.556887,17.5828494 137.614102,18.2430232 137.614102,18.9120094 L137.614102,27.5471698 Z M144.377226,27.6263915 C143.444167,27.6263915 142.599144,27.4415428 141.842133,27.0718399 C141.085123,26.702137 140.42935,26.1960037 139.874796,25.5534248 C139.320241,24.910846 138.893329,24.1670501 138.594046,23.3220149 C138.294762,22.4769797 138.145123,21.5791432 138.145123,20.6284786 C138.145123,19.6249993 138.303565,18.6919536 138.620453,17.8293135 C138.937341,16.9666734 139.377457,16.209674 139.940814,15.5582927 C140.50417,14.9069114 141.181949,14.396377 141.974169,14.0266741 C142.76639,13.6569712 143.637819,13.4721225 144.588484,13.4721225 C145.662383,13.4721225 146.604231,13.7141862 147.414056,14.198321 C148.223882,14.6824557 148.892858,15.3294261 149.421005,16.1392515 L149.421005,13.7097874 L152.51065,13.7097874 L152.51065,26.8869894 C152.51065,27.9080736 152.316999,28.8235146 151.929691,29.6333401 C151.542383,30.4431655 151.009843,31.1297463 150.332054,31.6931031 C149.654265,32.2564599 148.844452,32.6877735 147.90259,32.9870568 C146.960728,33.2863401 145.935258,33.4359795 144.826149,33.4359795 C143.312128,33.4359795 142.040193,33.1851134 141.010306,32.6833738 C139.980419,32.1816341 139.095786,31.4730475 138.356381,30.5575927 L140.284108,28.6826802 C140.812255,29.3340615 141.47683,29.844596 142.277853,30.2142989 C143.078875,30.5840018 143.928299,30.7688504 144.826149,30.7688504 C145.371901,30.7688504 145.895639,30.6940307 146.397379,30.5443891 C146.899118,30.3947474 147.343635,30.161486 147.730943,29.8445978 C148.118251,29.5277096 148.421931,29.122803 148.641992,28.6298658 C148.862053,28.1369286 148.972082,27.5559756 148.972082,26.8869894 L148.972082,25.144113 C148.514355,25.9363335 147.871786,26.5480946 147.044355,26.9794146 C146.216925,27.4107347 145.327891,27.6263915 144.377226,27.6263915 L144.377226,27.6263915 Z M145.565551,24.8008191 C145.952859,24.8008191 146.322556,24.7392029 146.674654,24.6159686 C147.026752,24.4927343 147.352438,24.3254902 147.651721,24.1142314 C147.951005,23.9029726 148.215074,23.6565077 148.443938,23.3748293 C148.672802,23.0931509 148.848848,22.7938721 148.972082,22.4769839 L148.972082,19.1760816 C148.655194,18.3662562 148.157863,17.7148847 147.480074,17.2219475 C146.802286,16.7290103 146.093699,16.4825454 145.354293,16.4825454 C144.808542,16.4825454 144.315612,16.6013767 143.875489,16.8390428 C143.435367,17.076709 143.056867,17.3935924 142.739979,17.7897027 C142.423091,18.1858129 142.181027,18.6391323 142.01378,19.1496744 C141.846534,19.6602165 141.762912,20.1883556 141.762912,20.7341075 C141.762912,21.2974643 141.859737,21.8256034 142.053391,22.3185406 C142.247045,22.8114778 142.515516,23.2427914 142.858811,23.6124943 C143.202107,23.9821972 143.602612,24.2726737 144.06034,24.4839325 C144.518067,24.6951913 145.019799,24.8008191 145.565551,24.8008191 L145.565551,24.8008191 Z" id="Baeldung"></path>
            <g id="tree-leaf" transform="translate(21.125552, 17.672878) scale(1, -1) rotate(78.000000) translate(-21.125552, -17.672878) translate(4.625552, 4.172878)">
                <g id="Capa_1" transform="translate(0.000000, -0.000000)">
                    <path d="M8.21743199,2.69769818 C1.56361694,6.67625584 1.94555588,13.1566155 2.17464962,15.5543701 C10.768798,5.06352099 23.6238114,5.57227695 23.6238114,5.57227695 C23.6238114,5.57227695 5.4014592,12.0135292 0.0494396807,24.9301181 C-0.373234772,25.9497827 2.03259758,27.275849 2.58165656,26.0703342 C4.22047753,22.478187 6.50410334,19.7840767 6.50410334,19.7840767 C9.87331313,21.0760585 15.7016248,22.5901277 19.8326234,19.5946387 C25.3197317,15.6153634 24.758835,6.79429583 32.5918909,2.49929053 C34.4215072,1.49648877 17.2380847,-2.69662182 8.21743199,2.69769818 L8.21743199,2.69769818 Z" id="Shape"></path>
                </g>
            </g>
        </g>
    </g>
</svg>