<?xml version="1.0" encoding="UTF-8" standalone="no"?>
<svg width="75px" height="75px" viewBox="0 0 75 75" version="1.1" xmlns="http://www.w3.org/2000/svg" xmlns:xlink="http://www.w3.org/1999/xlink">
    <!-- Generator: Sketch 3.6 (26304) - http://www.bohemiancoding.com/sketch -->
    <title>Artboard 5</title>
    <desc>Created with Sketch.</desc>
    <defs></defs>
    <g id="Page-1" stroke="none" stroke-width="1" fill="none" fill-rule="evenodd">
        <g id="Artboard-5" fill="#FFFFFF">
            <g id="tree-leaf" transform="translate(37.692843, 34.779399) scale(1, -1) rotate(78.000000) translate(-37.692843, -34.779399) translate(6.192843, 9.279399)">
                <g id="Capa_1" transform="translate(0.000000, -0.000000)">
                    <path d="M15.7653197,5.14775281 C2.99983268,12.7396441 3.73259074,25.1054788 4.17211198,29.6808788 C20.6601703,9.66222042 45.3227893,10.6330295 45.3227893,10.6330295 C45.3227893,10.6330295 10.3628154,22.9242393 0.0948510889,47.5716989 C-0.716058925,49.5174248 3.89958209,52.0478271 4.95296355,49.7474614 C8.09707676,42.8929194 12.4782619,37.7520129 12.4782619,37.7520129 C18.9421632,40.2173751 30.1239043,43.1065248 38.0493139,37.3905269 C48.5764489,29.7972663 47.5003566,12.9648883 62.5282425,4.76915096 C66.0384008,2.85560273 33.0716357,-5.14569891 15.7653197,5.14775281 L15.7653197,5.14775281 Z" id="Shape"></path>
                </g>
            </g>
        </g>
    </g>
</svg>